# xmcd
#
# Track frame offsets:
#	150
#	7100
#	23581
#	38280
#	55240
#	69987
#	86010
#
# Disc length: 1352 seconds
#
# Revision: 2
# Processed by: cddbd v1.5.2PL0 Copyright (c) Steve Scherf et al.
# Submitted via: EZCDAudioConverter 5.0.3.2
#
DISCID=48054607
DTITLE=Lovelyz  - Lovelyz8 (1st Mini Album)
DYEAR=2015
DGENRE=K-Pop
TTITLE0=Welcome To The Lovelyz8
TTITLE1=Ah-Choo
TTITLE2=작별하나
TTITLE3=Hug Me
TTITLE4=예쁜 여자가 되는 뱝
TTITLE5=새콤달콤
TTITLE6=라푼젤
EXTD=
EXTT0=
EXTT1=
EXTT2=
EXTT3=
EXTT4=
EXTT5=
EXTT6=
PLAYORDER=
